<svg id="visual" viewBox="0 0 900 600" width="900" height="600" xmlns="http://www.w3.org/2000/svg" xmlns:xlink="http://www.w3.org/1999/xlink" version="1.1">
    <rect x="0" y="0" width="900" height="600" fill="#D5D4D4"></rect>
    <g transform="translate(434.3075922252849 291.176822687245)">
        <path d="M88.8 -153.6C115.7 -138.4 138.4 -115.7 160.4 -88.8C182.4 -62 203.7 -31 206.3 1.5C208.9 34 192.8 68 170.9 95C148.9 122 121.2 142 91.8 161.5C62.3 181 31.2 200 1.5 197.3C-28.1 194.7 -56.3 170.4 -83.5 149.7C-110.8 128.9 -137.2 111.7 -152.5 87.4C-167.8 63 -171.9 31.5 -174.1 -1.2C-176.2 -34 -176.4 -68 -164.1 -97.4C-151.8 -126.9 -126.9 -151.8 -97.4 -165.4C-68 -179.1 -34 -181.6 -1.5 -179C31 -176.4 62 -168.7 88.8 -153.6" fill="#497294"></path>
    </g>
</svg>