<svg id="visual" viewBox="0 0 900 600" width="900" height="600" xmlns="http://www.w3.org/2000/svg" xmlnsXlink="http://www.w3.org/1999/xlink" version="1.1">
    <g transform="translate(429.7967823974184 301.4098607001361)">
        <path d="M75.8 -141.8C91 -122.6 91 -87.5 96.3 -61.3C101.6 -35 112.3 -17.5 129.6 10C147 37.5 170.9 75 161.2 93.8C151.6 112.5 108.3 112.6 75.8 119.6C43.3 126.7 21.7 140.9 -5.5 150.4C-32.7 159.9 -65.3 164.8 -88.4 152.3C-111.5 139.8 -125 109.9 -122.8 81.6C-120.5 53.3 -102.4 26.7 -95.7 3.9C-88.9 -18.8 -93.4 -37.7 -92.9 -61.2C-92.4 -84.7 -87 -112.9 -70.6 -131.5C-54.3 -150.1 -27.2 -159.1 1.6 -161.8C30.3 -164.5 60.7 -161.1 75.8 -141.8" fill="#497294"></path>
    </g>
    <g transform="translate(434.3075922252849 291.176822687245)">
        <path d="M88.8 -153.6C115.7 -138.4 138.4 -115.7 160.4 -88.8C182.4 -62 203.7 -31 206.3 1.5C208.9 34 192.8 68 170.9 95C148.9 122 121.2 142 91.8 161.5C62.3 181 31.2 200 1.5 197.3C-28.1 194.7 -56.3 170.4 -83.5 149.7C-110.8 128.9 -137.2 111.7 -152.5 87.4C-167.8 63 -171.9 31.5 -174.1 -1.2C-176.2 -34 -176.4 -68 -164.1 -97.4C-151.8 -126.9 -126.9 -151.8 -97.4 -165.4C-68 -179.1 -34 -181.6 -1.5 -179C31 -176.4 62 -168.7 88.8 -153.6" fill="#497294"></path>
    </g>
</svg>